# AST/ASF file generated using VICON BodyLanguage
# -----------------------------------------------
:version 1.10
:name VICON
:units
  mass 1.0
  length 0.45
  angle deg
:documentation
   .ast/.asf automatically generated from VICON data using
   VICON BodyBuilder and BodyLanguage model FoxedUp or BRILLIANT.MOD
:root
   order TX TY TZ RX RY RZ
   axis XYZ
   position 0 0 0  
   orientation 0 0 0 
:bonedata
  begin
     id 1 
     name lhipjoint
     direction 0.62366 -0.717238 0.310833 
     length 2.53602 
     axis 0 0 0  XYZ
  end
  begin
     id 2 
     name lfemur
     direction 0.34202 -0.939693 0  
     length 7.40817  
     axis 0 0 20  XYZ
    dof rx ry rz
    limits (-160.0 20.0)
           (-70.0 70.0)
           (-60.0 70.0)
  end
  begin
     id 3 
     name ltibia
     direction 0.34202 -0.939693 0   
     length 7.7045   
     axis 0 0 20   XYZ
    dof rx
    limits (-10.0 170.0)
  end
  begin
     id 4 
     name lfoot
     direction 0.0673888 -0.185149 0.980397   
     length 2.09456   
     axis -90 7.62852e-016 20   XYZ
    dof rx rz
    limits (-45.0 90.0)
           (-70.0 20.0)
  end
  begin
     id 5 
     name ltoes
     direction 1.53575e-011 -4.21994e-011 1   
     length 1.05543   
     axis -90 7.62852e-016 20   XYZ
    dof rx
    limits (-90.0 20.0)
  end
  begin
     id 6 
     name rhipjoint
     direction -0.489018 -0.800347 0.346851   
     length 2.27268  
     axis 0 0 0  XYZ 
  end
  begin
     id 7 
     name rfemur
     direction -0.34202 -0.939693 0   
     length 7.55487   
     axis 0 0 -20   XYZ
    dof rx ry rz
    limits (-160.0 20.0)
           (-70.0 70.0)
           (-70.0 60.0)
  end
  begin
     id 8 
     name rtibia
     direction -0.34202 -0.939693 0   
     length 7.78969   
     axis 0 0 -20   XYZ
    dof rx
    limits (-10.0 170.0)
 end
 begin
     id 9 
     name rfoot
     direction -0.0859318 -0.236096 0.967923   
     length 2.19143  
     axis -90 -7.62852e-016 -20   XYZ
    dof rx rz
    limits (-45.0 90.0)
           (-20.0 70.0)
  end
  begin
     id 10 
     name rtoes
     direction -1.53538e-011 -4.21989e-011 1   
     length 1.09845   
     axis -90 -7.62852e-016 -20   XYZ
    dof rx
    limits (-90.0 20.0)
  end
  begin
     id 11 
     name lowerback
     direction -0.00762546 0.998978 -0.0445553   
     length 1.98161   
     axis 0 0 0   XYZ
    dof rx ry rz
    limits (-20.0 45.0)
           (-30.0 30.0)
           (-30.0 30.0)
  end
  begin
     id 12 
     name upperback
     direction 0.0422361 0.998867 -0.0219156   
     length 1.97558   
     axis 0 0 0   XYZ
    dof rx ry rz
    limits (-20.0 45.0)
           (-30.0 30.0)
           (-30.0 30.0)
  end
  begin
     id 13 
     name thorax
     direction 0.0442465 0.999021 7.47603e-005   
     length 1.97799   
     axis 0 0 0   XYZ
    dof rx ry rz
    limits (-20.0 45.0)
           (-30.0 30.0)
           (-30.0 30.0)
  end
  begin
     id 14 
     name lowerneck
     direction 0.00312169 0.984641 0.174564   
     length 1.78995   
     axis 0 0 0   XYZ
    dof rx ry rz
    limits (-20.0 45.0)
           (-30.0 30.0)
           (-30.0 30.0)
  end
  begin
     id 15 
     name upperneck
     direction -0.0383028 0.985255 -0.166749   
     length 1.83053   
     axis 0 0 0   XYZ
    dof rx ry rz
    limits (-20.0 45.0)
           (-30.0 30.0)
           (-30.0 30.0)
  end
  begin
     id 16
     name head
     direction -0.0129546 0.997059 -0.0755386  
     length 1.84088  
     axis 0 0 0   XYZ
    dof rx ry rz
    limits (-20.0 45.0)
           (-30.0 30.0)
           (-30.0 30.0)
  end
  begin
     id 17 
     name lclavicle
     direction 0.912857 0.370519 -0.171488  
     length 3.51279  
     axis 0 0 0   XYZ
    dof ry rz
    limits (-20.0 10.0)
           (0.0 20.0)
  end
  begin
     id 18 
     name lhumerus
     direction 1 -4.48962e-011 3.64361e-027   
     length 4.95663   
     axis 180 -30 -90   XYZ
    dof rx ry rz
    limits (-60.0 90.0)
           (-90.0 90.0)
           (-90.0 90.0)
  end
  begin
     id 19
     name lradius
     direction 1 -4.48974e-011 5.97202e-027   
     length 3.38177   
     axis 180 -30 -90   XYZ
    dof rx
    limits (-10.0 170.0)
  end
  begin
     id 20
     name lwrist
     direction 1 -4.4896e-011 9.83288e-027   
     length 1.69088   
     axis -9.31221e-015 90 90   XYZ
    dof ry
    limits (-180.0 0.0)
 end
  begin
     id 21 
     name lhand
     direction 1 -4.4902e-011 1.96551e-026   
     length 0.662909   
     axis -1.25475e-014 90 90   XYZ
    dof rx rz
    limits (-90.0 90.0)
           (-45.0 45.0)
  end
  begin
     id 22 
     name lfingers
     direction 1 -4.48971e-011 3.93277e-026   
     length 0.534454   
     axis -2.50945e-014 90 90   XYZ
    dof rx
    limits (0.0 90.0)
  end
  begin
     id 23
     name lthumb
     direction 0.707107 -6.34933e-011 0.707107   
     length 0.767373   
     axis -90 45 -4.80359e-014   XYZ
    dof rx rz
    limits (-45.0 45.0)
           (-45.0 45.0)
  end
  begin
     id 24 
     name rclavicle
     direction -0.900919 0.395364 -0.178976   
     length 3.40627  
     axis 0 0 0   XYZ 
    dof ry rz
    limits (-10.0 20.0)
           (-20.0 0.0)
  end
  begin
     id 25 
     name rhumerus
     direction -1 -4.48969e-011 1.03875e-027  
     length 5.08365   
     axis 180 30 90   XYZ
    dof rx ry rz
    limits (-90.0 60.0)
           (-90.0 90.0)
           (-90.0 90.0)
  end
  begin
     id 26 
     name rradius
     direction -1 -4.48951e-011 5.02733e-027   
     length 3.35984   
     axis 180 30 90   XYZ
    dof rx
    limits (-10.0 170.0)
  end
  begin
     id 27 
     name rwrist
     direction -1 -4.49011e-011 9.82828e-027   
     length 1.67992   
     axis -9.31221e-015 -90 -90   XYZ
    dof ry
    limits (-180.0 0.0)
  end
  begin
     id 28
     name rhand
     direction -1 -4.48894e-011 1.96774e-026   
     length 0.820764   
     axis -1.25475e-014 -90 -90   XYZ
    dof rx rz
    limits (-90.0 90.0)
           (-45.0 45.0)
  end
  begin
     id 29
     name rfingers
     direction -1 -4.49095e-011 3.92833e-026   
     length 0.661721   
     axis -2.50945e-014 -90 -90   XYZ
    dof rx
    limits (0.0 90.0)
  end
  begin
     id 30
     name rthumb
     direction -0.707107 -6.34881e-011 0.707107   
     length 0.950103   
     axis -90 -45 4.80359e-014   XYZ
    dof rx rz
    limits (-45.0 45.0)
           (-45.0 45.0)
  end
:hierarchy
  begin
    root lhipjoint rhipjoint lowerback
    lhipjoint lfemur
    lfemur ltibia
    ltibia lfoot
    lfoot ltoes
    rhipjoint rfemur
    rfemur rtibia
    rtibia rfoot
    rfoot rtoes
    lowerback upperback
    upperback thorax
    thorax lowerneck lclavicle rclavicle
    lowerneck upperneck
    upperneck head
    lclavicle lhumerus
    lhumerus lradius
    lradius lwrist
    lwrist lhand lthumb
    lhand lfingers
    rclavicle rhumerus
    rhumerus rradius
    rradius rwrist
    rwrist rhand rthumb
    rhand rfingers
  end

#!OML:ASF I:\golf\golf\golf 2\Subject 1\2002-09-07\Subject1.ASF
:FULLY-SPECIFIED
:DEGREES
16
root -6.24721 17.8466 0.357695 -97.1248 85.432 -113.189
lowerback 0.865095 1.39717 -1.34796
upperback 3.48 1.8856 4.51188
thorax 2.90853 0.886565 5.46518
lowerneck -17.2665 -1.44902 1.47805
upperneck 40.9244 0.736079 -3.44021
head 18.258 0.624986 -1.54689
rclavicle -3.33958e-014 -1.59028e-015
rhumerus -3.93901 4.5518 -101.851
rradius 19.0387
rwrist -33.5372
rhand -17.8025 -10.0762
rfingers 7.12502
rthumb 8.46093 -39.8867
lclavicle -3.33958e-014 -1.59028e-015
lhumerus -7.5358 -38.785 110.55
lradius 21.548
lwrist 39.8913
lhand -10.4598 70.4441
lfingers 7.12502
lthumb -164.459 80.1604
rfemur -28.5666 -1.92754 13.8476
rtibia 27.9601
rfoot -9.49317 -10.5381
rtoes -3.27331
lfemur -27.3068 5.84675 -6.61078
ltibia 26.4962
lfoot -11.0365 -0.895283
ltoes -20.6235
17
root -6.24719 17.8507 0.355252 -96.4292 85.4329 -112.503
lowerback 0.843035 1.41201 -1.39618
upperback 3.47783 1.90575 4.55331
thorax 2.91412 0.895028 5.53729
lowerneck -17.2705 -1.44569 1.46231
upperneck 40.9184 0.763707 -3.47961
head 18.2572 0.627919 -1.55702
rclavicle 2.78299e-014 3.33958e-014
rhumerus -3.97162 4.59964 -101.817
rradius 19.07
rwrist -33.5522
rhand -18.0346 -10.2001
rfingers 7.12502
rthumb 8.23691 -40.0195
lclavicle 2.78299e-014 3.33958e-014
lhumerus -7.61496 -39.1323 110.557
lradius 21.5914
lwrist 40.3435
lhand -10.5929 69.9142
lfingers 7.12502
lthumb -164.587 80.6804
rfemur -28.5509 -1.75795 13.8117
rtibia 27.9132
rfoot -9.49928 -10.6168
rtoes -3.04219
lfemur -27.3033 5.94897 -6.62494
ltibia 26.5126
lfoot -11.0864 -0.930029
ltoes -20.8051
18
root -6.24793 17.8512 0.352372 -95.7049 85.4738 -111.805
lowerback 0.818817 1.44543 -1.44107
upperback 3.46252 1.95043 4.55508
thorax 2.90578 0.916289 5.56558
lowerneck -17.2549 -1.46046 1.48018
upperneck 40.908 0.748411 -3.51346
head 18.2462 0.620293 -1.57875
rclavicle 1.31198e-014 4.29375e-014
rhumerus -4.01613 4.51197 -101.813
rradius 19.1207
rwrist -33.3604
rhand -18.1553 -10.3987
rfingers 7.12502
rthumb 8.12041 -40.2227
lclavicle 1.31198e-014 4.29375e-014
lhumerus -7.69511 -39.3263 110.595
lradius 21.623
lwrist 40.4527
lhand -10.8315 70.0497
lfingers 7.12502
lthumb -164.817 80.5273
rfemur -28.5758 -1.73244 13.7704
rtibia 27.8738
rfoot -9.36576 -10.6151
rtoes -3.81229
lfemur -27.33 6.05573 -6.68738
ltibia 26.5455
lfoot -11.0973 -0.970785
ltoes -21.0475
19
root -6.24921 17.8488 0.346593 -95.4349 85.5586 -111.576
lowerback 0.785768 1.48463 -1.45688
upperback 3.44735 2.00208 4.50209
thorax 2.90423 0.94182 5.5199
lowerneck -17.2561 -1.47548 1.52836
upperneck 40.9039 0.702305 -3.50436
head 18.2415 0.611078 -1.59214
rclavicle -9.54166e-015 -2.46493e-014
rhumerus -4.03583 4.32336 -101.844
rradius 19.1877
rwrist -33.2668
rhand -18.1356 -10.5381
rfingers 7.12502
rthumb 8.13946 -40.3613
lclavicle -9.54166e-015 -2.46493e-014
lhumerus -7.75601 -39.449 110.618
lradius 21.672
lwrist 40.3479
lhand -10.8379 70.5892
lfingers 7.12502
lthumb -164.823 79.9874
rfemur -28.636 -1.89595 13.7098
rtibia 27.8571
rfoot -9.23025 -10.5
rtoes -4.75333
lfemur -27.3956 6.07087 -6.80403
ltibia 26.591
lfoot -11.1174 -0.920084
ltoes -21.2115
20
root -6.25131 17.8471 0.338786 -95.7238 85.5969 -111.855
lowerback 0.811329 1.50122 -1.37436
upperback 3.46045 2.02351 4.43298
thorax 2.9057 0.955029 5.3997
lowerneck -17.285 -1.48404 1.59222
upperneck 40.8812 0.642674 -3.47009
head 18.2324 0.600487 -1.59946
rclavicle 2.66371e-014 7.15625e-014
rhumerus -4.07068 4.54373 -101.885
rradius 19.3621
rwrist -33.7644
rhand -18.3073 -10.6201
rfingers 7.12502
rthumb 7.97373 -40.4497
lclavicle 2.66371e-014 7.15625e-014
lhumerus -7.75726 -39.51 110.532
lradius 21.7045
lwrist 40.4718
lhand -10.8676 70.8
lfingers 7.12502
lthumb -164.852 79.7744
rfemur -28.6344 -1.99768 13.6607
rtibia 27.8588
rfoot -9.19451 -10.4253
rtoes -5.05327
lfemur -27.4363 6.06284 -6.88066
ltibia 26.653
lfoot -11.1599 -0.923051
ltoes -21.2306
21
root -6.25347 17.8454 0.334002 -95.6309 85.5556 -111.755
lowerback 0.818187 1.50354 -1.26259
upperback 3.48149 2.02581 4.40452
thorax 2.9277 0.959007 5.30649
lowerneck -17.3312 -1.47944 1.62683
upperneck 40.8712 0.613648 -3.43226
head 18.2371 0.597756 -1.59429
rclavicle -1.19271e-014 -4.77083e-015
rhumerus -4.11506 4.92718 -101.944
rradius 19.5347
rwrist -34.257
rhand -18.5844 -10.7104
rfingers 7.12502
rthumb 7.70626 -40.55
lclavicle -1.19271e-014 -4.77083e-015
lhumerus -7.7648 -39.6914 110.436
lradius 21.7486
lwrist 40.6447
lhand -11.0858 70.8453
lfingers 7.12502
lthumb -165.062 79.7134
rfemur -28.6218 -1.93365 13.6825
rtibia 27.85
rfoot -9.1629 -10.4866
rtoes -5.39313
lfemur -27.4925 6.24883 -6.88955
ltibia 26.7315
lfoot -11.1951 -1.13156
ltoes -21.0274
22
root -6.25525 17.8439 0.329485 -95.5324 85.5434 -111.658
lowerback 0.830923 1.48362 -1.23322
upperback 3.47661 1.9992 4.40892
thorax 2.91889 0.946729 5.29351
lowerneck -17.3459 -1.44761 1.63261
upperneck 40.8859 0.660403 -3.42913
head 18.2522 0.617645 -1.58512
rclavicle 4.8901e-014 6.20208e-014
rhumerus -4.11724 4.76841 -102.029
rradius 19.4989
rwrist -33.9047
rhand -18.6539 -10.8611
rfingers 7.12502
rthumb 7.63919 -40.7032
lclavicle 4.8901e-014 6.20208e-014
lhumerus -7.79278 -39.7435 110.42
lradius 21.779
lwrist 40.5511
lhand -11.2737 71.1391
lfingers 7.12502
lthumb -165.243 79.4062
rfemur -28.6123 -1.88384 13.6661
rtibia 27.8166
rfoot -9.17589 -10.4973
rtoes -4.95402
lfemur -27.5591 6.44275 -6.93297
ltibia 26.8172
lfoot -11.2224 -1.3299
ltoes -20.7521
